<?xml version="1.0" standalone="no"?>
<!DOCTYPE svg PUBLIC "-//W3C//DTD SVG 20010904//EN"
 "http://www.w3.org/TR/2001/REC-SVG-20010904/DTD/svg10.dtd">
<svg version="1.0" xmlns="http://www.w3.org/2000/svg"
 width="1024.000000pt" height="1024.000000pt" viewBox="0 0 1024.000000 1024.000000"
 preserveAspectRatio="xMidYMid meet">

<g transform="translate(0.000000,1024.000000) scale(0.100000,-0.100000)"
fill="#000000" stroke="none">
<path d="M6483 9240 c-17 -4 -45 -16 -61 -26 -50 -32 -200 -206 -397 -459
-172 -222 -213 -271 -259 -309 l-44 -36 -25 53 c-26 52 -127 162 -113 122 23
-62 12 -304 -14 -320 -4 -2 -19 41 -34 97 -40 154 -73 202 -236 344 -52 45
-119 104 -149 130 l-54 48 6 -57 c4 -32 21 -97 37 -144 32 -92 37 -137 19
-176 l-11 -24 -78 34 c-43 19 -122 45 -174 58 -96 24 -246 43 -246 31 0 -3 28
-41 62 -84 56 -71 128 -199 128 -229 0 -29 -92 5 -190 70 -125 83 -162 120
-296 294 -253 331 -417 522 -480 559 -53 31 -134 33 -181 4 -59 -35 -146 -239
-204 -475 -61 -250 -96 -601 -86 -870 8 -191 23 -260 77 -337 l40 -58 -60 -30
c-115 -58 -235 -75 -320 -45 -58 20 -70 19 -70 -8 0 -50 95 -163 159 -189 14
-6 58 -14 96 -17 l70 -6 -78 -55 c-178 -126 -267 -168 -379 -177 -98 -8 -102
-15 -43 -68 89 -80 184 -114 313 -115 l73 0 -53 -52 c-30 -29 -90 -98 -134
-153 -168 -208 -253 -273 -375 -290 -62 -9 -59 -21 12 -57 77 -39 164 -59 274
-61 52 -1 95 -5 95 -9 0 -4 -9 -13 -21 -20 -11 -7 -48 -46 -80 -87 -85 -105
-140 -220 -174 -361 -15 -68 -20 -140 -8 -140 4 0 32 20 62 43 111 86 232 139
348 152 l58 6 -28 -22 c-43 -33 -158 -186 -238 -317 -241 -394 -282 -430 -534
-469 -69 -11 -71 -33 -9 -73 67 -42 184 -86 283 -104 47 -9 86 -18 88 -20 2
-2 -6 -27 -17 -57 -36 -90 -60 -209 -67 -324 -10 -184 27 -340 112 -465 27
-40 55 -76 61 -77 7 -2 14 15 18 42 4 25 13 62 20 82 l12 36 37 -78 c39 -82
108 -184 149 -223 l25 -23 6 70 c11 137 104 266 221 310 87 32 97 23 32 -29
-54 -43 -129 -129 -155 -178 -9 -17 -10 -106 -1 -390 5 -202 13 -512 17 -690
l6 -323 189 -184 c314 -307 406 -382 731 -598 326 -217 492 -319 742 -457
l169 -94 121 64 c260 137 534 302 935 565 l195 128 286 286 286 286 7 435 c4
239 11 545 15 680 4 135 3 260 -1 277 -12 46 -63 109 -140 173 -36 30 -60 56
-54 58 7 2 38 -7 69 -18 125 -47 225 -196 227 -340 l1 -35 53 57 c35 36 73 94
107 162 30 58 57 102 62 97 4 -4 14 -38 21 -75 8 -37 18 -71 21 -74 10 -11 61
57 100 133 55 108 77 209 77 350 0 132 -16 223 -61 358 l-29 86 56 11 c166 33
329 99 356 142 16 26 0 35 -97 51 -191 33 -260 98 -467 437 -79 129 -158 238
-225 309 l-50 53 55 -7 c122 -16 247 -73 356 -161 23 -19 44 -34 48 -34 11 0
6 94 -9 159 -35 146 -110 285 -211 392 l-55 57 88 6 c144 10 318 64 330 102 2
6 -19 16 -51 22 -127 26 -192 77 -383 304 -68 81 -136 156 -151 167 l-27 20
70 1 c131 0 251 48 338 133 l42 41 -75 7 c-128 13 -241 62 -394 170 l-89 64
67 7 c83 8 145 38 192 91 39 44 80 124 70 135 -4 3 -35 -2 -70 -11 -111 -29
-199 -18 -323 43 l-63 31 28 37 c16 20 37 52 46 70 85 166 65 745 -39 1157
-37 143 -122 374 -159 428 -41 59 -104 84 -173 67z m-2617 -367 c99 -212 121
-261 194 -428 90 -208 164 -390 174 -429 8 -31 11 -32 -76 26 -31 21 -59 38
-62 38 -8 0 13 -44 87 -181 37 -69 67 -128 67 -131 0 -6 -54 3 -150 26 -35 8
-66 13 -68 11 -6 -5 41 -60 130 -152 44 -46 65 -74 57 -77 -83 -22 -284 -66
-306 -66 -32 0 -77 27 -99 58 l-15 22 74 -6 c41 -4 95 -4 120 0 l45 7 -93 92
c-51 51 -109 118 -130 150 -45 72 -116 225 -107 231 4 2 50 -9 102 -25 52 -16
103 -29 113 -29 14 0 6 21 -42 113 -68 128 -135 277 -128 284 3 2 37 -12 77
-32 71 -36 72 -36 67 -13 -21 83 -58 288 -66 370 -12 102 -14 218 -6 218 3 0
21 -35 41 -77z m2610 -25 c-8 -119 -27 -251 -57 -391 -12 -54 -19 -101 -16
-103 3 -3 38 11 77 31 49 25 71 32 67 22 -31 -82 -81 -191 -128 -284 -35 -68
-53 -113 -45 -113 7 0 50 11 96 25 111 33 122 33 109 -3 -40 -116 -130 -253
-236 -358 -82 -82 -83 -84 -57 -90 15 -4 66 -4 115 -1 l89 6 -16 -24 c-40 -61
-86 -67 -214 -31 -47 14 -103 28 -125 31 -22 4 -46 8 -54 11 -8 3 16 35 67 89
44 46 90 98 102 115 l22 31 -24 -6 c-128 -29 -193 -43 -195 -42 -1 1 34 73 78
160 44 86 78 157 76 157 -3 0 -35 -20 -72 -45 -37 -25 -70 -43 -73 -41 -6 6
-5 8 104 271 144 349 296 685 311 685 3 0 3 -46 -1 -102z m-2450 -2069 c111
-44 257 -124 344 -188 206 -152 216 -160 153 -137 -21 7 -54 18 -73 23 -24 6
-36 15 -40 33 -3 14 -21 35 -39 47 -19 13 -28 23 -20 23 33 1 -49 45 -299 161
-51 23 -97 49 -103 56 -16 18 -9 17 77 -18z m2309 14 c-18 -14 -239 -123 -250
-123 -2 0 -34 -16 -71 -36 -48 -27 -62 -39 -52 -46 9 -6 5 -7 -11 -3 -15 5
-21 3 -17 -3 4 -6 -4 -16 -16 -23 -31 -16 -38 -29 -32 -55 5 -20 0 -23 -46
-33 -28 -6 -59 -11 -70 -11 -10 0 -26 -7 -34 -16 -9 -8 -16 -11 -16 -6 0 15
41 47 190 144 140 93 256 156 370 204 65 27 83 30 55 7z m-2018 -265 c-3 -7
-5 -2 -5 12 0 14 2 19 5 13 2 -7 2 -19 0 -25z m1660 -15 c-3 -10 -5 -2 -5 17
0 19 2 27 5 18 2 -10 2 -26 0 -35z m-27 -66 c0 -2 -10 -12 -22 -23 l-23 -19
19 23 c18 21 26 27 26 19z m-2023 -107 c60 -75 131 -145 188 -188 l30 -22 -44
15 c-49 17 -105 48 -138 78 -39 34 -26 4 25 -58 89 -111 217 -175 386 -196 79
-9 82 -10 124 -57 103 -112 269 -398 306 -526 15 -50 16 -69 6 -127 -10 -59
-9 -76 6 -121 21 -63 83 -133 126 -142 17 -3 55 -22 85 -42 92 -61 108 -62
210 -11 48 24 100 47 114 50 40 10 77 45 104 96 33 66 39 111 25 184 -11 59
-10 69 15 143 47 142 187 378 292 492 l48 53 82 10 c114 13 210 48 288 104 57
40 134 125 135 147 0 4 -24 -7 -52 -25 -101 -63 -180 -82 -93 -23 28 19 77 62
110 95 33 34 65 61 72 61 7 0 52 12 100 27 74 22 108 26 215 27 75 1 131 -3
137 -9 20 -20 -108 -89 -274 -150 -16 -6 1 -17 81 -55 55 -26 136 -71 180
-101 l79 -54 -90 -6 c-49 -4 -146 -8 -215 -9 -69 -1 -138 -5 -153 -9 -26 -6
-24 -8 49 -51 43 -25 111 -78 153 -118 l76 -73 -40 5 c-98 15 -295 18 -380 7
-135 -18 -138 -20 -59 -45 131 -42 131 -41 18 -96 -161 -78 -262 -184 -370
-388 -27 -51 -51 -87 -53 -81 -9 29 24 154 60 226 l39 78 -43 -46 c-23 -25
-47 -56 -54 -70 -7 -13 -41 -86 -77 -163 -105 -223 -182 -326 -286 -382 -51
-28 -195 -26 -271 4 l-56 22 -49 -21 c-32 -14 -79 -23 -134 -26 -78 -5 -90 -3
-135 20 -103 53 -191 172 -310 422 -65 135 -138 246 -153 231 -2 -3 7 -24 21
-48 32 -56 64 -151 71 -210 3 -27 4 -48 1 -48 -3 0 -19 28 -36 63 -115 229
-267 376 -459 442 l-35 12 40 20 c22 11 65 29 95 39 l55 18 -65 14 c-81 17
-303 18 -394 3 -38 -7 -71 -10 -73 -7 -8 7 68 86 127 131 30 23 82 57 115 76
l60 34 -200 8 c-110 4 -220 10 -244 13 l-44 6 54 39 c30 21 109 66 177 100 67
34 122 62 122 64 0 2 -30 13 -67 25 -69 22 -184 79 -216 108 -25 22 -7 30 79
38 72 6 216 -13 294 -40 22 -7 40 -12 40 -10 0 3 -7 21 -15 41 -17 39 -20 63
-7 48 5 -6 36 -44 69 -85z m1637 -96 c-32 -74 -37 -84 -42 -79 -3 3 7 32 23
65 31 65 46 76 19 14z m-814 -15 c12 -22 19 -48 17 -57 -3 -12 -9 -7 -19 18
-36 82 -34 111 2 39z m-1120 -926 c-75 -70 -231 -251 -322 -373 -35 -47 -54
-65 -56 -55 -7 31 29 163 63 234 19 40 35 74 35 76 0 1 -21 0 -47 -2 l-48 -5
50 37 c86 63 196 113 320 145 39 10 72 16 73 15 2 -2 -29 -34 -68 -72z m1640
-33 c29 -15 22 -31 -26 -55 -56 -27 -194 -26 -232 2 -43 32 -40 50 10 62 53
13 218 7 248 -9z m1613 -110 l59 -55 -6 55 c-4 30 -9 73 -13 95 l-6 40 38 -45
c45 -54 129 -128 179 -160 21 -12 36 -23 34 -25 -2 -1 -34 2 -72 7 -37 5 -70
8 -71 6 -2 -2 1 -23 6 -48 13 -69 21 -281 12 -314 -9 -28 -11 -26 -55 65 -25
52 -90 184 -144 294 -55 110 -101 205 -103 210 -4 10 37 -25 142 -125z m-2922
-477 c22 -45 55 -98 73 -119 l31 -36 24 78 23 79 37 -105 c21 -58 63 -156 95
-218 l57 -114 -31 19 c-18 10 -58 39 -91 66 -32 26 -61 47 -63 47 -3 0 -8 -26
-12 -57 l-7 -57 -29 34 c-167 196 -251 452 -199 605 l14 39 18 -89 c12 -58 33
-119 60 -172z m2509 131 c55 -178 -8 -379 -156 -497 -59 -47 -200 -125 -209
-115 -3 3 9 36 26 74 41 91 76 193 85 249 3 25 10 45 14 45 4 0 16 -27 26 -60
11 -33 22 -60 26 -60 13 0 77 125 103 203 14 43 31 111 38 152 6 41 15 75 19
75 4 0 16 -30 28 -66z m-1701 -43 c50 -39 103 -65 191 -92 61 -19 97 -24 195
-23 104 0 130 4 198 27 75 26 177 83 191 106 14 21 26 11 20 -16 -13 -54 -66
-141 -105 -173 -176 -141 -497 -130 -646 22 -28 28 -51 66 -67 111 -14 37 -23
67 -20 67 3 0 23 -13 43 -29z m635 -557 c404 -93 560 -132 836 -210 486 -138
563 -165 574 -207 3 -12 6 -309 6 -661 l0 -638 -137 -140 c-161 -163 -261
-247 -468 -390 -493 -342 -1011 -649 -1069 -634 -28 7 -379 203 -531 296 -134
82 -388 249 -540 355 -205 143 -391 300 -511 433 l-74 83 0 658 0 659 25 16
c79 52 802 247 1555 419 36 9 71 16 79 16 8 1 123 -24 255 -55z"/>
<path d="M4800 4089 c-945 -238 -1193 -303 -1217 -322 -10 -7 -13 -142 -13
-614 l0 -605 83 -85 c143 -148 310 -275 597 -455 313 -196 634 -368 835 -448
l76 -30 87 36 c232 95 561 278 887 492 225 148 374 261 490 373 l100 97 5 223
c3 123 4 402 2 620 l-3 396 -122 36 c-287 85 -1420 368 -1466 366 -14 0 -168
-36 -341 -80z m-470 -473 c9 -4 38 -46 66 -94 28 -48 102 -176 164 -285 88
-152 117 -194 125 -185 6 7 54 87 105 178 152 268 219 377 237 385 29 12 265
18 303 8 45 -12 50 -40 16 -98 l-26 -44 0 -568 -1 -568 -152 -121 -152 -121
-5 494 -5 494 -59 -103 c-126 -222 -257 -438 -264 -438 -20 0 -49 42 -187 275
-82 138 -151 253 -154 257 -3 4 -4 -162 -2 -369 3 -362 2 -376 -15 -371 -11 3
-81 20 -158 39 -121 30 -139 37 -147 58 -5 13 -9 254 -9 541 1 506 1 518 -19
551 -34 56 -24 79 41 90 50 9 276 5 298 -5z m2063 8 c6 -6 -103 -223 -125
-251 -8 -10 -67 -13 -234 -13 l-224 0 0 -115 0 -115 230 -2 230 -3 -68 -125
-68 -125 -162 -3 -162 -2 -1 -263 0 -262 -157 -118 -157 -119 -3 693 -2 692
-25 23 c-27 25 -33 67 -13 81 42 27 110 31 514 32 231 1 423 -2 427 -5z"/>
<path d="M3003 8586 c-180 -103 -393 -243 -392 -258 1 -7 4 -23 7 -36 7 -22 8
-22 72 23 66 47 326 210 413 259 47 27 52 35 39 69 -6 15 -24 8 -139 -57z"/>
<path d="M7176 8644 c-12 -32 -4 -43 62 -80 331 -184 620 -399 900 -669 117
-113 120 -114 137 -95 22 24 28 16 -115 155 -231 225 -470 409 -752 578 -187
112 -225 130 -232 111z"/>
<path d="M7054 8415 c-19 -29 -15 -80 11 -118 8 -13 84 -64 168 -112 295 -171
585 -380 777 -562 94 -88 125 -103 160 -75 l22 18 -125 135 c-258 277 -608
543 -915 698 l-82 41 -16 -25z"/>
<path d="M3150 8364 c-283 -156 -629 -417 -864 -651 -508 -503 -835 -1089
-1025 -1833 -65 -253 -75 -350 -75 -700 -1 -233 4 -339 17 -450 26 -213 89
-506 144 -670 l18 -55 67 2 67 1 15 -44 c15 -45 15 -45 -10 -54 -14 -6 -29
-10 -33 -10 -15 0 -41 -37 -41 -59 0 -46 153 -384 253 -556 97 -169 228 -355
356 -505 100 -118 224 -251 243 -261 25 -13 110 33 151 82 l31 36 75 -57 c172
-129 232 -171 421 -292 169 -108 502 -282 650 -340 22 -8 20 -4 -13 30 -23 24
-87 64 -160 102 -261 134 -566 324 -760 474 -63 48 -82 58 -95 49 -38 -23
-269 182 -448 397 -104 125 -223 292 -320 448 -99 159 -245 445 -264 516 -9
32 -20 50 -32 54 -11 2 -18 13 -18 28 0 12 -11 58 -25 101 -85 270 -136 594
-165 1048 -24 369 0 556 126 985 91 310 97 324 138 331 12 3 46 58 106 174
160 313 331 559 563 813 269 293 578 542 902 727 55 32 103 62 107 69 19 29 1
106 -25 106 -7 0 -41 -16 -77 -36z"/>
<path d="M2345 8257 c-45 -45 -48 -92 -7 -137 75 -85 219 -18 198 93 -9 49
-37 70 -101 75 -52 4 -56 3 -90 -31z"/>
<path d="M2078 7892 c-195 -200 -296 -321 -277 -333 32 -20 57 -9 100 44 24
28 121 131 216 228 l173 175 -34 16 -34 17 -144 -147z"/>
<path d="M7353 7793 c-7 -2 -13 -15 -13 -29 0 -39 72 -47 86 -9 13 32 -32 55
-73 38z"/>
<path d="M8306 7761 c-16 -18 -15 -22 40 -82 349 -390 645 -921 795 -1424 50
-167 52 -170 89 -183 27 -10 31 -9 26 6 -134 495 -277 819 -529 1197 -124 187
-374 505 -396 505 -4 0 -16 -9 -25 -19z"/>
<path d="M2706 7627 c-28 -21 -17 -61 17 -65 55 -6 80 50 31 68 -31 12 -27 13
-48 -3z"/>
<path d="M1658 7393 c-123 -172 -235 -358 -331 -549 l-55 -111 28 -17 29 -17
62 123 c104 208 186 343 332 546 32 46 57 85 55 87 -3 3 -18 7 -34 11 -28 5
-33 1 -86 -73z"/>
<path d="M7903 7423 c-8 -2 -13 -22 -13 -44 0 -56 -14 -76 -60 -90 -36 -11
-46 -10 -90 11 l-50 24 -40 -39 c-22 -22 -40 -43 -40 -48 0 -5 16 -28 36 -49
30 -34 35 -45 30 -71 -9 -44 -22 -55 -82 -67 l-55 -12 3 -36 c3 -34 6 -38 50
-52 55 -17 71 -32 87 -80 10 -30 9 -38 -9 -60 -43 -53 -45 -65 -14 -104 52
-65 64 -69 117 -35 43 29 48 30 86 18 51 -15 60 -25 69 -80 l7 -44 67 -3 67
-3 6 38 c12 67 16 75 53 90 34 14 39 14 94 -13 l59 -28 41 41 41 41 -32 50
c-30 47 -31 51 -19 88 12 37 16 40 76 53 l62 15 -6 50 c-8 63 -16 74 -63 82
-46 8 -57 18 -71 60 -11 31 -9 38 19 76 35 48 32 60 -29 108 -45 36 -55 35
-111 -11 -26 -20 -28 -21 -81 -5 l-55 16 -17 60 -17 60 -52 -1 c-29 0 -58 -3
-64 -6z m148 -265 c118 -40 163 -166 96 -267 -86 -130 -296 -92 -338 62 -35
129 109 251 242 205z"/>
<path d="M2330 7219 c-60 -24 -100 -85 -100 -151 0 -82 59 -137 161 -152 43
-6 48 -5 92 34 52 47 73 98 63 154 -17 91 -128 150 -216 115z m110 -54 c30
-16 60 -61 60 -90 0 -64 -70 -123 -132 -111 -55 10 -88 49 -88 103 0 38 5 50
34 79 38 38 77 44 126 19z"/>
<path d="M2320 7096 c0 -24 29 -46 60 -46 39 0 48 19 20 42 -27 22 -80 24 -80
4z"/>
<path d="M2872 7217 c-19 -23 9 -52 42 -43 21 5 27 12 24 29 -4 26 -48 36 -66
14z"/>
<path d="M2772 6708 c4 -28 39 -36 57 -14 18 21 5 36 -30 36 -26 0 -30 -3 -27
-22z"/>
<path d="M8734 6632 c42 -83 123 -273 132 -307 l6 -25 -468 -1 c-350 0 -478
-4 -504 -13 -33 -12 -29 -13 74 -19 60 -4 246 -7 413 -7 l303 0 0 -35 0 -35
-452 0 -453 0 -50 -24 -50 -24 593 -1 592 -1 0 -514 0 -514 -47 -6 c-27 -3
-277 -4 -558 -2 -280 1 -530 0 -554 -3 l-43 -6 22 -20 c21 -19 38 -20 499 -22
262 -1 484 -2 494 -3 12 0 17 -8 17 -29 0 -24 3 -28 20 -24 11 3 20 14 20 24
0 25 30 39 84 39 l46 0 0 -45 0 -46 -367 1 c-203 1 -388 1 -413 0 l-45 -1 40
-15 c32 -12 113 -15 420 -18 209 -2 390 -1 403 1 l22 5 1 597 0 596 37 -130
c34 -119 39 -130 62 -134 47 -6 57 -64 14 -83 -20 -9 -24 -17 -19 -36 21 -85
56 -333 65 -468 41 -575 -158 -1362 -457 -1806 -40 -60 -73 -118 -73 -128 0
-27 82 -110 108 -110 32 0 56 29 106 127 200 399 334 859 381 1307 17 168 20
489 5 656 -42 457 -160 912 -337 1293 l-36 77 -44 0 -43 0 34 -68z m136 -407
l0 -35 -60 0 -60 0 0 35 0 35 60 0 60 0 0 -35z"/>
<path d="M1222 6627 c-21 -25 -24 -63 -7 -81 19 -19 29 -20 55 -6 23 12 34 55
20 80 -12 22 -52 27 -68 7z"/>
<path d="M7674 6466 c-11 -28 4 -48 33 -44 22 2 28 8 28 28 0 20 -6 26 -28 28
-18 2 -29 -2 -33 -12z"/>
<path d="M1147 6404 c-12 -22 -89 -314 -121 -464 -55 -263 -86 -512 -86 -706
0 -97 1 -102 23 -108 12 -3 25 -6 28 -6 3 0 9 64 13 143 14 292 55 565 127
845 22 86 46 176 51 199 10 36 8 46 -9 73 -11 18 -23 28 -26 24z"/>
<path d="M1526 6363 c-3 -21 -6 -284 -6 -585 l0 -548 576 0 c561 0 654 4 654
32 0 4 -227 8 -504 8 l-504 0 11 35 10 35 481 0 481 1 40 24 40 25 -586 0
c-578 0 -587 0 -613 21 l-26 20 0 405 0 404 471 0 471 0 -14 23 -15 22 -372 3
-371 2 0 34 0 33 323 7 c178 4 335 4 349 1 14 -4 45 -1 69 6 24 6 73 15 109
19 36 4 -190 8 -501 9 l-566 1 -7 -37z m176 -38 l-4 -35 -59 0 -59 0 0 35 0
35 63 0 63 0 -4 -35z m-2 -1019 l0 -34 -60 -4 -60 -3 0 38 0 37 60 0 60 0 0
-34z"/>
<path d="M2264 5983 c-37 -91 -98 -234 -131 -306 -36 -80 -35 -103 3 -95 13 2
44 62 108 211 49 114 87 209 85 211 -2 2 -14 7 -27 10 -19 6 -25 2 -38 -31z"/>
<path d="M8251 5917 c-89 -206 -131 -309 -131 -319 0 -5 12 -8 26 -6 25 3 34
20 115 207 49 112 86 208 83 213 -3 4 -15 8 -27 8 -18 0 -29 -17 -66 -103z"/>
<path d="M7902 5893 c-107 -62 -112 -66 -112 -98 0 -36 -4 -33 167 -126 61
-34 62 -34 77 -14 19 25 14 30 -83 87 -41 24 -76 48 -78 53 -1 6 35 32 82 58
69 39 85 53 85 72 0 12 -6 25 -13 28 -8 3 -64 -24 -125 -60z"/>
<path d="M1885 5887 c-105 -59 -110 -64 -112 -97 -3 -35 -2 -35 103 -92 58
-32 112 -58 119 -58 8 0 19 9 25 20 11 21 0 30 -117 96 -29 16 -53 32 -53 36
0 4 38 29 85 55 75 41 86 50 83 72 -2 13 -8 26 -13 28 -6 2 -60 -25 -120 -60z"/>
<path d="M2420 5935 c-20 -24 -6 -40 84 -90 47 -27 86 -51 86 -54 0 -4 -40
-29 -90 -56 -49 -28 -90 -55 -90 -62 0 -6 7 -19 16 -27 14 -15 19 -14 57 8 23
14 74 42 112 64 59 33 70 44 73 69 3 28 -3 33 -112 96 -63 37 -117 67 -119 67
-3 0 -10 -7 -17 -15z"/>
<path d="M8434 5935 c-11 -27 3 -40 85 -85 45 -24 80 -48 78 -54 -2 -6 -38
-31 -81 -54 -83 -47 -98 -65 -73 -89 14 -15 26 -10 129 48 101 58 113 68 116
94 3 29 -2 33 -111 93 -62 34 -119 62 -126 62 -6 0 -14 -7 -17 -15z"/>
<path d="M9247 5904 c-10 -10 -9 -56 2 -72 5 -8 21 -12 37 -10 27 3 29 6 29
43 0 37 -2 40 -30 43 -17 2 -34 0 -38 -4z"/>
<path d="M9274 5736 c-11 -45 -2 -61 36 -61 34 0 35 1 35 40 0 38 -2 40 -32
43 -27 3 -33 -1 -39 -22z"/>
<path d="M9346 5477 l-28 -47 11 -132 c22 -265 12 -541 -30 -828 -11 -74 -21
-144 -22 -155 -2 -17 4 -20 32 -20 l35 0 13 85 c58 393 67 766 25 1090 l-8 55
-28 -48z"/>
<path d="M8127 5419 c-20 -27 -17 -32 34 -61 48 -27 47 -46 -3 -71 -42 -21
-49 -42 -17 -52 14 -5 33 2 59 20 l39 27 24 -28 c22 -26 31 -28 114 -32 59 -3
98 0 113 8 16 9 25 9 33 1 26 -26 37 -11 37 52 l0 63 -47 -6 c-52 -6 -72 -33
-32 -43 33 -9 12 -27 -32 -27 -32 0 -41 4 -48 22 -9 26 -4 55 13 65 6 4 34 10
61 13 42 4 50 8 50 25 0 39 -94 31 -145 -11 -36 -31 -39 -64 -10 -111 11 -18
15 -33 9 -33 -18 0 -64 28 -88 54 l-25 26 38 39 c36 37 41 61 12 61 -7 0 -25
-13 -41 -30 -16 -16 -33 -30 -39 -30 -6 0 -29 18 -52 41 l-42 41 -15 -23z"/>
<path d="M7921 5333 c1 -43 4 -88 7 -99 l7 -22 58 18 c85 27 107 44 107 85 0
56 -60 95 -147 95 l-33 0 1 -77z m125 6 c21 -17 17 -27 -18 -49 -50 -30 -58
-26 -58 29 l0 50 31 -9 c17 -5 37 -14 45 -21z"/>
<path d="M937 4903 c2 -49 6 -107 9 -130 5 -42 6 -43 41 -43 l36 0 -6 68 c-4
37 -7 88 -7 113 0 42 -3 47 -35 62 -20 9 -37 17 -39 17 -2 0 -2 -39 1 -87z"/>
<path d="M1835 4910 c-5 -8 -11 -49 -13 -92 l-5 -78 -30 0 c-17 0 -60 -5 -96
-11 -56 -10 -62 -13 -42 -21 13 -5 57 -11 96 -15 l72 -6 7 -75 c3 -42 10 -80
15 -85 9 -9 12 7 27 114 l6 46 66 6 c37 3 78 10 92 15 23 8 21 10 -28 21 -29
6 -70 11 -91 11 l-38 0 -7 69 c-7 84 -19 121 -31 101z"/>
<path d="M8422 4658 c-28 -28 -3 -72 39 -66 30 4 47 33 33 56 -14 21 -55 27
-72 10z"/>
<path d="M969 4599 c-17 -33 4 -71 38 -67 33 4 48 27 39 61 -5 22 -12 27 -36
27 -20 0 -33 -7 -41 -21z"/>
<path d="M1004 4413 c3 -10 21 -81 40 -158 53 -212 170 -569 196 -598 12 -14
61 15 55 32 -74 186 -168 472 -200 611 -13 60 -23 81 -48 103 -36 31 -51 35
-43 10z"/>
<path d="M8012 4408 c-47 -24 -37 -99 15 -119 34 -13 80 -5 105 18 21 19 24
62 5 87 -16 22 -92 31 -125 14z"/>
<path d="M8690 4385 c-17 -20 -4 -52 26 -59 48 -12 84 30 52 62 -17 17 -63 15
-78 -3z"/>
<path d="M2193 4255 c-73 -32 -42 -115 44 -115 77 0 111 66 57 109 -31 24 -56
26 -101 6z"/>
<path d="M9241 4191 c-24 -44 -10 -101 25 -101 31 0 56 39 52 82 -3 29 -7 33
-35 36 -23 2 -34 -2 -42 -17z"/>
<path d="M8420 4109 c-20 -37 24 -62 74 -43 19 7 21 35 4 52 -20 20 -66 15
-78 -9z"/>
<path d="M1722 4068 c-17 -17 4 -48 32 -48 28 0 51 24 42 45 -6 18 -57 20 -74
3z"/>
<path d="M7926 4014 c-19 -19 -20 -26 -4 -42 23 -23 88 -9 88 19 0 14 -32 39
-50 39 -10 0 -26 -7 -34 -16z"/>
<path d="M9196 3951 c-2 -3 -25 -64 -51 -136 -60 -166 -110 -284 -190 -448
-36 -72 -63 -132 -61 -134 1 -1 16 -5 32 -9 30 -6 31 -5 96 123 86 167 146
308 197 465 22 70 41 129 41 131 0 7 -61 14 -64 8z"/>
<path d="M2350 3858 c3 -3 66 -36 140 -72 l135 -67 -54 50 c-29 28 -69 57 -87
66 -32 15 -145 34 -134 23z"/>
<path d="M1946 3804 c-9 -8 -16 -19 -16 -24 0 -17 32 -40 55 -40 25 0 55 24
55 44 0 35 -65 49 -94 20z"/>
<path d="M7749 3796 c-55 -19 -99 -50 -149 -102 -33 -34 -39 -43 -20 -34 41
20 250 143 250 146 0 8 -47 2 -81 -10z"/>
<path d="M7961 3781 c-19 -12 -6 -43 16 -39 10 2 18 12 18 22 0 22 -14 29 -34
17z"/>
<path d="M8192 3609 c-72 -7 -192 -41 -357 -104 -12 -5 1 14 30 45 42 44 46
51 25 45 -70 -20 -178 -104 -346 -267 -146 -142 -190 -154 -277 -77 -49 43
-64 46 -107 24 -58 -30 -70 -58 -70 -161 0 -103 -3 -100 67 -84 23 5 114 14
203 20 89 6 192 18 229 27 66 16 174 64 186 82 6 11 -53 44 -97 55 -21 5 -35
-1 -68 -29 -35 -30 -50 -35 -91 -35 -27 0 -49 3 -48 8 1 13 123 109 174 137
53 29 71 29 282 9 50 -5 68 -3 89 11 25 16 26 20 22 97 l-3 81 120 56 c66 30
122 56 124 58 11 8 -11 8 -87 2z"/>
<path d="M2338 3542 c34 -31 62 -60 62 -63 0 -3 -42 2 -92 12 -51 10 -105 19
-120 19 l-28 0 0 -95 c0 -91 1 -95 26 -111 23 -16 35 -16 113 -6 132 18 215
15 259 -7 20 -10 70 -46 110 -80 79 -67 79 -78 -3 -69 -28 4 -60 17 -86 37
-51 37 -56 37 -120 10 -59 -26 -55 -35 29 -72 93 -42 160 -55 349 -67 154 -10
282 -30 344 -55 15 -6 16 4 12 102 l-4 108 -102 99 -101 100 -16 -66 c-21 -86
-41 -114 -90 -129 -71 -22 -105 -3 -250 136 -141 135 -230 203 -306 235 l-49
20 63 -58z"/>
<path d="M1318 3530 c-22 -13 -24 -7 89 -217 103 -191 231 -403 345 -567 70
-102 74 -106 103 -100 17 4 32 8 34 10 3 2 -41 71 -96 152 -130 190 -221 341
-337 554 -52 95 -100 174 -108 175 -7 2 -21 -2 -30 -7z"/>
<path d="M8382 3158 c-275 -297 -607 -620 -768 -750 -49 -39 -88 -76 -87 -82
2 -6 -70 -50 -160 -98 -205 -109 -364 -183 -695 -321 -44 -19 -166 -107 -147
-107 10 0 246 91 355 137 258 110 550 257 623 314 20 17 41 28 45 25 4 -2 22
-24 40 -49 l32 -45 -26 -17 c-25 -16 -28 -16 -55 4 -15 12 -31 21 -34 21 -4 0
-81 -41 -173 -92 -183 -101 -443 -225 -592 -281 -435 -165 -407 -151 -660
-320 -176 -118 -226 -156 -200 -151 110 20 529 133 670 180 458 154 874 374
1213 641 262 206 631 600 815 871 64 95 64 95 -14 154 -76 59 -100 54 -182
-34z"/>
<path d="M8786 3047 c-53 -91 -239 -336 -346 -455 -50 -57 -90 -105 -88 -106
1 -2 14 -9 28 -16 23 -12 27 -10 75 41 131 141 315 384 404 531 l22 37 -29 15
-30 15 -36 -62z"/>
<path d="M7800 2853 c-16 -6 -30 -23 -30 -35 0 -4 11 -15 25 -24 21 -14 31
-15 50 -6 54 25 11 86 -45 65z"/>
<path d="M2886 2799 c-33 -26 -34 -62 -1 -94 50 -50 155 -20 155 45 0 38 -41
70 -90 70 -23 0 -48 -8 -64 -21z"/>
<path d="M7242 2778 c-7 -7 -12 -22 -12 -35 0 -41 73 -59 103 -25 34 38 14 72
-43 72 -20 0 -41 -5 -48 -12z"/>
<path d="M1901 2551 c-12 -8 6 -33 85 -117 326 -353 773 -675 1251 -900 459
-217 1016 -367 1438 -388 123 -6 119 -4 -100 44 -496 110 -905 235 -1198 367
-492 220 -892 490 -1253 845 -162 159 -184 174 -223 149z"/>
<path d="M2499 2493 c-42 -17 -89 -61 -89 -83 0 -19 45 -63 155 -152 405 -327
917 -603 1385 -745 134 -41 401 -105 408 -98 2 2 -88 65 -200 140 -112 76
-225 155 -252 178 -28 23 -91 58 -150 82 -386 160 -656 310 -1039 576 -83 58
-159 108 -168 111 -8 3 -31 -1 -50 -9z"/>
<path d="M8144 2281 c-126 -122 -315 -279 -442 -365 l-72 -50 21 -22 c27 -29
22 -31 198 101 126 95 375 310 444 383 l29 30 -21 21 c-12 12 -24 21 -28 21
-5 -1 -63 -54 -129 -119z"/>
<path d="M7325 1689 c-242 -126 -597 -273 -812 -336 -65 -19 -75 -32 -49 -66
13 -16 20 -15 137 22 293 93 524 190 780 327 l157 85 -11 29 c-6 17 -16 30
-22 29 -5 0 -86 -41 -180 -90z"/>
<path d="M6210 1317 c-33 -16 -40 -75 -12 -100 45 -41 143 -11 150 46 7 56
-73 87 -138 54z"/>
<path d="M5970 1199 c-58 -16 -142 -36 -188 -45 -45 -9 -81 -18 -79 -20 5 -6
276 26 325 38 47 11 62 22 62 46 0 15 5 16 -120 -19z"/>
</g>
</svg>
